<?xml version="1.0" standalone="no"?>
<!DOCTYPE svg PUBLIC "-//W3C//DTD SVG 20010904//EN"
 "http://www.w3.org/TR/2001/REC-SVG-20010904/DTD/svg10.dtd">
<svg version="1.0" xmlns="http://www.w3.org/2000/svg"
 width="256.000000pt" height="256.000000pt" viewBox="0 0 256.000000 256.000000"
 preserveAspectRatio="xMidYMid meet">

<g transform="translate(0.000000,256.000000) scale(0.100000,-0.100000)"
fill="#000000" stroke="none">
<path d="M1464 2228 c-10 -17 13 -33 29 -20 8 7 17 8 23 2 12 -12 39 4 30 18
-8 13 -74 13 -82 0z"/>
<path d="M1412 2208 c7 -19 38 -22 38 -4 0 10 -9 16 -21 16 -12 0 -19 -5 -17
-12z"/>
<path d="M1363 2178 c-23 -27 -28 -68 -7 -68 13 0 19 18 14 50 -1 8 1 12 6 8
8 -9 34 9 34 23 0 17 -27 9 -47 -13z"/>
<path d="M1495 2082 c-31 -6 -64 -42 -77 -84 -10 -34 -8 -49 22 -137 18 -55
30 -106 27 -115 -9 -23 -50 -36 -111 -36 -138 0 -339 -84 -442 -185 -36 -35
-74 -67 -85 -70 -24 -8 -41 -38 -33 -59 7 -18 46 -21 74 -6 20 10 53 3 45 -10
-2 -4 -19 -10 -37 -14 -40 -8 -68 -33 -68 -60 -1 -19 -2 -19 -13 -5 -11 15
-16 14 -53 -2 -48 -20 -49 -21 -58 -71 -6 -34 -5 -38 15 -38 18 0 19 -2 9 -15
-7 -9 -21 -13 -35 -9 -35 9 -82 -21 -90 -56 -4 -17 -14 -38 -23 -46 -15 -15
-11 -16 46 -12 73 5 96 22 111 84 9 36 17 46 45 58 19 8 37 24 41 35 7 22 25
29 25 9 0 -7 5 -6 13 3 6 9 24 23 39 32 17 11 31 32 38 57 11 41 21 46 68 34
22 -6 22 -8 6 -25 -9 -11 -23 -19 -30 -19 -23 0 -44 -31 -44 -64 0 -37 -25
-66 -58 -66 -22 0 -85 -67 -76 -82 3 -5 2 -8 -3 -7 -17 4 -62 -21 -77 -43 -11
-15 -16 -44 -16 -91 0 -59 2 -68 16 -63 9 3 24 6 34 6 26 0 100 72 100 98 0
12 13 31 31 44 41 30 60 69 53 106 -6 28 -3 32 39 50 53 24 71 50 58 85 -19
49 -6 63 60 63 32 0 59 -3 59 -8 0 -4 -4 -8 -9 -8 -15 0 -22 -47 -11 -74 12
-32 21 -32 59 0 22 18 31 35 31 55 0 23 5 30 28 35 15 3 33 8 41 10 7 2 -1
-12 -18 -31 -33 -38 -41 -87 -18 -118 11 -16 12 -15 13 8 1 14 10 38 20 53
l18 27 5 -23 c4 -13 9 -23 14 -23 4 1 53 40 108 88 55 49 106 90 112 93 7 3
34 18 60 34 60 36 87 85 87 158 0 75 -33 138 -123 236 -43 46 -77 87 -77 92 0
4 22 10 49 12 27 3 56 12 64 20 14 13 14 18 1 44 -8 16 -17 30 -18 32 -8 8
-63 18 -81 14z m20 -30 c-3 -3 9 -14 27 -24 l33 -17 -27 -1 c-16 0 -37 9 -48
20 -22 22 -19 43 6 33 8 -3 12 -8 9 -11z m-176 -384 c15 -18 28 -21 72 -20 37
1 49 -2 39 -8 -26 -17 -86 -11 -114 11 -14 11 -26 25 -26 30 0 15 11 10 29
-13z m31 12 c0 -5 -4 -10 -10 -10 -5 0 -10 5 -10 10 0 6 5 10 10 10 6 0 10 -4
10 -10z m30 -11 c0 -11 -4 -17 -10 -14 -5 3 -10 13 -10 21 0 8 5 14 10 14 6 0
10 -9 10 -21z m-133 -4 c13 -36 120 -60 181 -41 12 4 22 3 22 -2 0 -23 -111
-30 -157 -10 -32 13 -73 47 -73 60 0 14 20 9 27 -7z m41 -6 c12 -19 11 -19 -8
-9 -11 6 -20 15 -20 20 0 17 15 11 28 -11z m127 11 c3 -5 2 -10 -4 -10 -5 0
-13 5 -16 10 -3 6 -2 10 4 10 5 0 13 -4 16 -10z m-205 -18 c0 -13 -48 -33 -55
-22 -4 6 15 17 53 29 1 1 2 -3 2 -7z m7 -39 c-9 -9 -20 -14 -24 -10 -3 4 2 14
13 21 25 19 33 10 11 -11z m-118 -7 c9 -11 9 -16 -1 -22 -7 -4 -10 -4 -6 1 4
4 3 14 -3 22 -6 7 -9 13 -6 13 2 0 10 -6 16 -14z m144 -11 c-22 -17 -30 -11
-13 10 7 8 17 12 22 9 5 -3 1 -12 -9 -19z m38 -15 c-25 -22 -41 -26 -41 -10 0
11 30 29 50 29 10 0 8 -6 -9 -19z m163 -2 c-39 -45 -70 -68 -119 -88 l-50 -21
40 7 c53 8 86 26 124 69 17 20 31 30 31 22 0 -36 -109 -107 -165 -107 -14 0
-25 -4 -25 -10 0 -28 99 4 151 49 30 25 39 29 30 14 -22 -42 -103 -83 -162
-83 -16 0 -29 -5 -29 -11 0 -12 45 -8 85 7 14 5 17 4 10 -4 -5 -6 -36 -17 -68
-25 -54 -14 -58 -14 -52 1 28 66 29 73 19 112 -11 39 -11 40 24 60 19 12 37
18 40 15 7 -7 -29 -34 -45 -35 -7 0 -13 -5 -13 -11 0 -6 21 1 46 15 26 14 53
26 61 26 26 0 -4 -27 -53 -47 -24 -10 -44 -21 -44 -25 0 -20 75 15 121 57 43
39 73 48 43 13z m-414 -21 c0 -7 -4 -6 -10 3 -9 14 -11 13 -14 -9 0 -5 -4 -12
-7 -15 -9 -9 2 -56 12 -56 5 0 6 8 3 18 -5 15 -3 14 10 -2 9 -11 19 -16 23
-13 4 4 1 13 -5 19 -7 7 -12 17 -12 23 0 5 10 -5 21 -22 21 -33 30 -39 42 -27
10 10 -4 34 -17 27 -6 -3 -8 -3 -4 2 4 4 1 13 -8 19 -13 10 -13 12 5 12 11 0
17 -4 15 -8 -3 -4 -3 -8 1 -8 3 0 9 9 13 19 7 19 8 18 19 -5 11 -23 8 -29 -35
-75 -33 -35 -48 -45 -55 -36 -6 8 -7 7 -4 -5 3 -9 0 -21 -7 -27 -9 -8 -12 -5
-12 11 1 11 -6 23 -14 26 -13 4 -13 3 -2 -10 18 -22 5 -26 -47 -15 -32 6 -40
11 -30 18 19 12 32 11 24 -1 -3 -5 3 -10 13 -10 11 0 23 7 26 16 4 12 2 15 -9
10 -13 -5 -13 -2 1 19 10 16 14 37 12 57 -4 24 0 36 16 49 22 18 36 16 36 -4z
m31 6 c13 -16 12 -17 -3 -4 -10 7 -18 15 -18 17 0 8 8 3 21 -13z m139 -4 c0
-5 -4 -9 -10 -9 -5 0 -10 7 -10 16 0 8 5 12 10 9 6 -3 10 -10 10 -16z m-240
-53 c0 -18 -6 -40 -12 -49 -15 -19 -75 -37 -64 -18 4 6 14 11 21 11 23 0 48
46 41 76 -5 17 -3 23 4 19 5 -3 10 -21 10 -39z m260 22 c0 -4 -4 -10 -10 -13
-16 -10 -11 -44 10 -65 11 -11 16 -20 12 -20 -22 0 -44 40 -39 69 4 19 2 31
-6 34 -7 3 -2 4 11 4 12 -1 22 -5 22 -9z m-296 -49 c-9 -10 -25 -19 -35 -19
-9 0 -20 -6 -22 -12 -4 -8 -6 -9 -6 -2 -1 15 19 31 44 36 14 3 19 11 18 28 -2
22 -2 23 8 7 8 -14 7 -23 -7 -38z m246 38 c0 -2 -10 -12 -22 -23 l-23 -19 19
23 c18 21 26 27 26 19z m70 -6 c0 -5 -6 -12 -12 -14 -10 -4 -10 -8 1 -15 9 -7
10 -12 2 -16 -14 -9 -25 18 -17 39 6 16 26 21 26 6z m-80 -35 c0 -2 -8 -10
-17 -17 -16 -13 -17 -12 -4 4 13 16 21 21 21 13z m-43 -12 c-3 -4 -2 -16 4
-28 10 -20 10 -20 -5 -2 -15 18 -21 15 -17 -7 1 -5 -3 -5 -9 -2 -8 5 -6 13 6
26 9 10 19 19 22 19 3 0 2 -3 -1 -6z m40 -29 c0 -8 -4 -12 -9 -9 -5 3 -6 10
-3 15 9 13 12 11 12 -6z m-342 -25 c3 -5 1 -10 -4 -10 -6 0 -11 5 -11 10 0 6
2 10 4 10 3 0 8 -4 11 -10z m270 -10 c-3 -5 -14 -8 -25 -7 -14 1 -16 5 -9 13
11 14 42 7 34 -6z m115 4 c0 -6 -6 -14 -13 -17 -7 -3 -13 3 -13 12 0 10 6 18
13 18 7 0 13 -6 13 -13z m-357 -98 c4 -10 1 -13 -9 -9 -15 6 -19 23 -5 23 5 0
11 -7 14 -14z m-211 -196 c5 -31 1 -34 -26 -24 -19 7 -21 25 -4 42 19 19 25
15 30 -18z"/>
<path d="M1019 1462 c-19 -13 -20 -16 -5 -24 12 -7 22 -5 33 4 12 9 15 9 9 1
-4 -7 -3 -13 3 -13 9 0 36 39 29 41 -23 7 -53 3 -69 -9z"/>
<path d="M1523 1293 c65 -2 168 -2 230 0 62 1 9 3 -118 3 -126 0 -177 -2 -112
-3z"/>
<path d="M1091 1272 c-1 -13 -8 -37 -17 -54 -11 -21 -14 -41 -8 -67 4 -20 8
-44 9 -53 1 -10 5 -21 10 -25 4 -5 4 3 0 17 -7 24 -6 24 10 8 17 -16 19 -15
41 18 30 44 30 55 -2 93 -14 17 -29 43 -34 58 -8 25 -8 26 -9 5z m19 -116 c-7
-7 -14 -6 -21 1 -9 9 -7 12 9 10 14 -1 18 -5 12 -11z"/>
<path d="M1045 1270 c-3 -6 1 -7 9 -4 18 7 21 14 7 14 -6 0 -13 -4 -16 -10z"/>
<path d="M1049 1245 c-1 -3 -2 -8 -3 -12 -1 -5 -5 -14 -10 -21 -14 -22 0 -23
19 -2 14 15 15 20 4 20 -11 0 -11 2 1 10 10 6 11 10 3 10 -7 0 -14 -2 -14 -5z"/>
<path d="M826 1205 c-11 -8 -17 -17 -14 -20 2 -3 13 4 23 15 21 23 18 25 -9 5z"/>
<path d="M1332 1141 c-17 -50 -18 -61 -6 -61 8 0 14 5 14 10 0 6 11 10 25 10
14 0 25 -4 25 -10 0 -5 7 -10 16 -10 16 0 16 3 -11 80 -19 56 -40 50 -63 -19z
m48 -8 c0 -7 -7 -13 -15 -13 -16 0 -19 9 -9 35 5 13 8 14 15 3 5 -7 9 -19 9
-25z"/>
<path d="M1440 1140 l0 -60 35 0 c19 0 35 5 35 10 0 6 -11 10 -25 10 -23 0
-25 3 -25 50 0 28 -4 50 -10 50 -6 0 -10 -27 -10 -60z"/>
<path d="M1530 1140 l0 -60 35 0 c19 0 35 5 35 10 0 6 -11 10 -25 10 -23 0
-25 3 -25 50 0 28 -4 50 -10 50 -6 0 -10 -27 -10 -60z"/>
<path d="M1660 1140 l0 -60 40 0 c45 0 61 20 42 50 -7 12 -7 21 0 28 21 21 0
42 -42 42 l-40 0 0 -60z m60 25 c0 -8 -9 -15 -20 -15 -11 0 -20 7 -20 15 0 8
9 15 20 15 11 0 20 -7 20 -15z m5 -50 c0 -5 -10 -11 -22 -13 -16 -2 -23 2 -23
13 0 11 7 15 23 13 12 -2 22 -7 22 -13z"/>
<path d="M1775 1140 l0 -60 38 0 c20 0 37 5 37 10 0 6 -11 10 -25 10 -23 0
-25 3 -25 50 0 33 -4 50 -12 50 -9 0 -13 -19 -13 -60z"/>
<path d="M1870 1153 c0 -27 4 -53 8 -59 12 -18 41 -24 67 -14 22 9 25 15 25
65 0 30 -4 55 -10 55 -5 0 -10 -22 -10 -49 0 -52 -12 -65 -42 -49 -13 6 -18
21 -18 53 0 25 -4 45 -10 45 -5 0 -10 -21 -10 -47z"/>
<path d="M2000 1140 l0 -60 40 0 c22 0 40 5 40 10 0 6 -11 10 -25 10 -16 0
-25 6 -25 15 0 8 9 15 20 15 11 0 20 5 20 10 0 6 -9 10 -20 10 -11 0 -20 7
-20 15 0 9 9 15 25 15 14 0 25 5 25 10 0 6 -18 10 -40 10 l-40 0 0 -60z"/>
<path d="M584 1174 c-18 -14 -18 -15 4 -4 12 6 22 13 22 15 0 8 -5 6 -26 -11z"/>
<path d="M989 1163 c-13 -16 -12 -17 4 -4 9 7 17 15 17 17 0 8 -8 3 -21 -13z"/>
<path d="M744 1145 c-10 -8 -14 -15 -8 -15 6 0 17 7 24 15 16 19 9 19 -16 0z"/>
<path d="M554 1118 l-19 -23 23 19 c21 18 27 26 19 26 -2 0 -12 -10 -23 -22z"/>
<path d="M957 1099 c-21 -22 -40 -51 -43 -65 -8 -33 39 -113 66 -111 10 1 17
3 15 5 -2 2 8 20 22 40 17 26 23 46 20 67 -7 39 -30 105 -38 105 -3 0 -22 -18
-42 -41z"/>
<path d="M1157 1080 c-3 -14 -8 -38 -11 -55 -2 -16 -7 -37 -11 -46 -4 -11 5
-29 24 -52 22 -25 31 -45 31 -70 0 -75 31 -105 117 -114 l54 -6 -7 29 c-17 70
-49 107 -104 119 -19 5 -29 10 -22 12 7 3 12 21 12 43 0 30 -8 48 -31 74 -17
20 -34 48 -38 63 l-8 28 -6 -25z m147 -275 c3 -8 1 -15 -4 -15 -6 0 -10 7 -10
15 0 8 2 15 4 15 2 0 6 -7 10 -15z"/>
<path d="M1190 1087 c0 -18 32 -67 41 -62 5 4 8 1 7 -7 -2 -7 5 -12 14 -12 10
1 16 -2 13 -6 -7 -12 20 -20 44 -13 17 4 10 10 -36 33 -31 15 -62 38 -69 51
-7 13 -13 20 -14 16z"/>
<path d="M542 1013 c-24 -24 -24 -25 -2 -8 42 33 44 35 37 35 -4 0 -19 -12
-35 -27z"/>
<path d="M589 1007 c-34 -30 -69 -78 -69 -93 0 -4 11 3 25 16 13 12 22 26 20
30 -2 4 2 16 11 26 14 18 14 17 3 -6 -11 -23 -11 -24 4 -11 31 25 17 -3 -20
-43 -35 -35 -35 -37 -7 -17 28 21 80 92 55 77 -16 -11 -13 5 6 26 28 32 9 28
-28 -5z"/>
<path d="M1034 953 c-17 -42 -18 -51 -6 -41 14 11 15 10 7 -7 -4 -11 -10 -33
-12 -50 -3 -24 -1 -22 12 12 8 23 15 46 14 50 -1 4 0 22 1 38 l2 30 8 -34 c4
-18 4 -47 -2 -65 -5 -17 -11 -60 -12 -96 -2 -36 -1 -52 1 -37 l4 28 35 -31
c19 -16 38 -30 43 -30 10 0 28 -39 52 -113 38 -118 80 -144 215 -132 l74 7
-32 60 c-42 79 -84 115 -145 123 -68 9 -97 22 -129 58 -24 26 -25 28 -4 12
l24 -20 -17 27 c-13 20 -16 38 -11 68 6 37 4 43 -31 75 -20 20 -45 55 -54 79
l-16 43 -21 -54z"/>
<path d="M1090 971 c11 -41 25 -58 27 -33 1 10 -7 29 -18 42 l-19 25 10 -34z"/>
<path d="M882 950 c-6 -19 -13 -55 -16 -80 -5 -38 -3 -34 14 24 12 38 19 74
17 80 -2 6 -9 -5 -15 -24z"/>
<path d="M1257 953 c18 -49 127 -104 203 -102 30 1 28 2 -20 13 -68 15 -115
39 -158 80 -28 26 -32 28 -25 9z"/>
<path d="M1310 940 c35 -30 114 -61 154 -59 12 1 1 7 -24 14 l-45 12 50 5 c39
4 36 5 -13 3 -50 -2 -69 1 -95 19 -54 37 -64 39 -27 6z"/>
<path d="M612 936 c-6 -13 -25 -40 -42 -60 -18 -20 -27 -36 -22 -36 18 0 90
105 79 116 -2 2 -9 -7 -15 -20z"/>
<path d="M906 893 c-4 -26 -13 -57 -21 -67 -8 -11 -15 -36 -15 -56 0 -29 8
-44 42 -78 22 -23 47 -42 53 -42 7 0 15 15 19 33 5 23 9 28 15 18 6 -9 4 -30
-5 -54 -30 -85 -13 -121 88 -181 l56 -34 4 72 c3 64 0 78 -29 136 -18 36 -30
55 -27 43 4 -19 2 -22 -13 -17 -34 12 -63 52 -63 86 0 18 -10 48 -23 67 -12
18 -34 54 -48 78 l-26 45 -7 -49z m38 -121 c27 5 32 -4 20 -36 -13 -34 -64 -4
-64 37 0 17 2 19 9 8 5 -8 19 -12 35 -9z m113 -208 c-3 -3 -12 -4 -19 -1 -8 3
-5 6 6 6 11 1 17 -2 13 -5z"/>
<path d="M766 872 c-5 -20 -22 -44 -46 -63 -57 -46 -67 -78 -46 -144 9 -29 26
-65 37 -80 l22 -26 39 38 c75 72 84 117 41 198 -14 28 -29 64 -33 80 l-7 30
-7 -33z m-43 -147 c-3 -9 -8 -14 -10 -11 -3 3 -2 9 2 15 9 16 15 13 8 -4z m67
-29 c0 -3 -4 -8 -10 -11 -5 -3 -10 -1 -10 4 0 6 5 11 10 11 6 0 10 -2 10 -4z"/>
<path d="M708 850 c-9 -22 -15 -40 -13 -40 8 0 36 61 33 70 -2 5 -11 -9 -20
-30z"/>
<path d="M614 838 c-43 -50 -58 -71 -47 -65 6 4 26 25 43 47 34 43 37 55 4 18z"/>
<path d="M1340 846 c0 -1 20 -17 45 -35 52 -37 101 -56 170 -65 49 -6 49 -6
-20 17 -38 13 -98 38 -132 55 -35 17 -63 30 -63 28z"/>
<path d="M545 804 l-30 -26 33 18 c17 10 32 22 32 26 0 11 -1 10 -35 -18z"/>
<path d="M629 813 c-29 -35 -41 -53 -36 -53 2 0 17 16 31 35 28 36 31 49 5 18z"/>
<path d="M654 808 c-40 -46 -50 -64 -20 -38 25 23 52 60 43 60 -2 0 -12 -10
-23 -22z"/>
<path d="M1405 774 c38 -30 106 -56 163 -60 l57 -4 -63 14 c-35 8 -89 26 -120
40 -33 15 -48 19 -37 10z"/>
<path d="M1406 748 c7 -12 84 -50 93 -46 4 2 -17 15 -46 29 -28 14 -50 21 -47
17z"/>
<path d="M575 739 c-4 -6 -5 -12 -2 -15 2 -3 7 2 10 11 7 17 1 20 -8 4z"/>
<path d="M1050 706 c0 -8 4 -17 9 -20 5 -4 7 3 4 14 -6 23 -13 26 -13 6z"/>
<path d="M1121 680 c12 -22 25 -38 27 -35 5 4 -37 75 -44 75 -3 0 5 -18 17
-40z"/>
<path d="M1371 685 c47 -19 110 -36 140 -39 54 -5 54 -5 10 4 -60 13 -174 50
-185 61 -6 5 -19 9 -30 8 -12 0 18 -16 65 -34z"/>
<path d="M861 645 c0 -22 6 -49 14 -59 18 -23 18 -25 0 44 -13 55 -13 55 -14
15z"/>
<path d="M627 631 c-6 -29 19 -159 29 -149 1 2 -3 44 -10 93 -10 78 -13 85
-19 56z"/>
<path d="M560 628 c0 -7 5 -20 10 -28 8 -12 10 -11 10 7 0 12 -4 25 -10 28 -5
3 -10 0 -10 -7z"/>
<path d="M1490 620 c24 -8 147 -14 139 -6 -2 2 -40 6 -84 9 -46 3 -69 2 -55
-3z"/>
<path d="M1465 571 c42 -48 125 -75 185 -61 33 8 32 8 -18 9 -47 1 -159 37
-149 48 2 2 24 -6 48 -17 27 -12 63 -19 94 -18 l50 1 -45 7 -45 7 50 2 c89 3
76 16 -19 19 -111 3 -138 6 -156 17 -8 5 -6 -2 5 -14z m112 -17 c-3 -3 -12 -4
-19 -1 -8 3 -5 6 6 6 11 1 17 -2 13 -5z"/>
<path d="M834 515 c2 -43 10 -82 20 -100 10 -17 14 -21 11 -10 -4 11 -13 56
-21 100 l-14 80 4 -70z"/>
<path d="M916 550 c4 -19 11 -44 15 -55 6 -14 7 -9 3 15 -4 19 -11 44 -15 55
-6 14 -7 9 -3 -15z"/>
<path d="M865 498 c3 -75 27 -132 66 -157 24 -15 24 -15 -2 15 -33 36 -49 67
-49 91 0 10 9 0 19 -22 10 -22 36 -56 57 -75 37 -34 33 -24 -15 35 -13 17 -32
48 -42 70 -14 29 -19 35 -20 20 -2 -11 -6 5 -9 35 l-8 55 3 -67z"/>
<path d="M672 520 c0 -14 2 -19 5 -12 2 6 2 18 0 25 -3 6 -5 1 -5 -13z"/>
<path d="M700 517 c0 -39 23 -88 55 -117 l28 -25 -22 38 c-13 21 -32 59 -42
85 -15 40 -18 43 -19 19z"/>
<path d="M1165 495 c9 -51 25 -79 63 -110 l37 -30 -37 44 c-21 24 -44 62 -53
85 -11 31 -14 33 -10 11z"/>
<path d="M981 495 c-1 -28 42 -117 65 -135 14 -12 14 -8 -4 17 -13 18 -32 56
-42 85 -10 29 -19 44 -19 33z"/>
<path d="M750 465 c0 -10 40 -75 47 -75 2 0 -6 17 -18 38 -28 45 -29 47 -29
37z"/>
<path d="M1294 429 c27 -24 56 -48 65 -52 9 -5 -4 10 -29 33 -24 23 -54 46
-65 52 -11 6 2 -9 29 -33z"/>
<path d="M1244 442 c8 -13 66 -56 66 -49 0 3 -17 17 -37 33 -20 15 -33 23 -29
16z"/>
<path d="M1538 443 c12 -2 32 -2 45 0 12 2 2 4 -23 4 -25 0 -35 -2 -22 -4z"/>
<path d="M1045 413 c10 -18 33 -42 49 -54 25 -19 23 -14 -13 27 -25 27 -47 51
-49 54 -3 3 3 -9 13 -27z"/>
<path d="M1086 412 c10 -19 33 -43 49 -55 27 -19 27 -17 -9 23 -56 65 -61 69
-40 32z"/>
<path d="M1140 386 c14 -15 37 -34 52 -42 43 -22 47 -16 6 10 -21 12 -48 31
-60 42 -20 16 -20 15 2 -10z"/>
</g>
</svg>
