<?xml version="1.0" standalone="no"?>
<!DOCTYPE svg PUBLIC "-//W3C//DTD SVG 20010904//EN"
 "http://www.w3.org/TR/2001/REC-SVG-20010904/DTD/svg10.dtd">
<svg version="1.0" xmlns="http://www.w3.org/2000/svg"
 width="500.000000pt" height="500.000000pt" viewBox="0 0 500.000000 500.000000"
 preserveAspectRatio="xMidYMid meet">

<g transform="translate(0.000000,500.000000) scale(0.100000,-0.100000)"
fill="#000000" stroke="none">
<path d="M0 2500 l0 -2500 2500 0 2500 0 0 2500 0 2500 -2500 0 -2500 0 0
-2500z m3170 1370 c13 -25 4 -25 -51 -3 -41 16 -41 16 -18 29 27 14 53 5 69
-26z m-558 -591 c6 -40 49 -62 120 -60 34 0 74 2 87 3 36 4 36 -18 0 -31 -67
-23 -175 -6 -221 36 -11 10 -26 30 -34 45 -14 28 -14 28 15 28 23 0 30 -5 33
-21z m58 0 c0 -14 -5 -19 -17 -17 -26 5 -29 38 -4 38 15 0 21 -6 21 -21z m66
-18 c3 -27 1 -32 -12 -27 -9 3 -18 6 -20 6 -2 0 -4 14 -4 31 0 44 31 36 36
-10z m-193 -11 c18 -27 22 -40 12 -40 -14 0 -65 55 -65 71 0 22 29 6 53 -31z
m7 -66 c49 -26 230 -33 283 -11 25 11 39 13 43 5 11 -17 -23 -36 -84 -49 -129
-26 -304 26 -357 107 -14 22 -15 28 -4 35 10 6 25 -3 49 -30 19 -21 51 -46 70
-57z m248 84 c15 -15 15 -28 1 -28 -11 0 -39 24 -39 34 0 11 26 6 38 -6z
m-388 -36 c0 -13 -80 -62 -102 -62 -31 0 -16 23 32 48 46 23 70 28 70 14z
m-150 -27 c-27 -14 -36 -13 -25 4 3 6 16 11 28 11 21 -1 21 -1 -3 -15z m190
-19 c0 -3 -16 -17 -35 -31 -44 -34 -72 -23 -29 12 25 20 64 31 64 19z m-280
-20 c0 -11 -19 -15 -25 -6 -3 5 1 10 9 10 9 0 16 -2 16 -4z m45 -6 c-3 -5 -11
-10 -16 -10 -6 0 -7 5 -4 10 3 6 11 10 16 10 6 0 7 -4 4 -10z m-75 -30 c0 -17
-15 -11 -28 11 -12 19 -11 19 8 9 11 -6 20 -15 20 -20z m110 9 c0 -5 -7 -9
-15 -9 -15 0 -20 12 -9 23 8 8 24 -1 24 -14z m222 -22 c-22 -21 -35 -28 -49
-23 -16 7 -14 11 16 36 46 39 74 28 33 -13z m-197 3 c-10 -11 -21 -18 -23 -15
-6 6 31 44 37 39 2 -2 -4 -13 -14 -24z m45 0 c0 -5 -2 -10 -4 -10 -3 0 -8 5
-11 10 -3 6 -1 10 4 10 6 0 11 -4 11 -10z m249 1 c10 -7 4 -16 -29 -40 -24
-17 -47 -31 -52 -31 -4 0 -8 -5 -8 -11 0 -15 38 -1 88 32 24 16 53 29 65 29
20 -1 18 -3 -13 -30 -32 -27 -53 -38 -104 -54 -14 -5 -16 -10 -9 -17 13 -13
107 27 160 67 23 18 43 24 66 22 l32 -3 -30 -28 c-25 -24 -149 -93 -196 -109
-8 -3 -11 -8 -8 -12 3 -3 33 2 66 12 69 22 165 82 195 123 11 15 31 30 43 33
13 3 31 9 42 13 15 5 15 2 -5 -18 -12 -13 -40 -44 -61 -69 -49 -56 -128 -105
-205 -124 -63 -17 -73 -22 -62 -33 12 -13 130 18 188 49 53 28 135 105 165
153 11 18 12 17 12 -11 1 -26 -10 -42 -67 -96 -75 -70 -148 -106 -242 -117
-43 -5 -56 -10 -58 -25 -4 -17 1 -18 45 -12 116 17 194 57 272 141 23 25 45
44 47 42 3 -2 -2 -22 -11 -43 -28 -70 -175 -147 -309 -162 -37 -5 -61 -12 -64
-21 -7 -22 112 -8 185 21 73 30 74 19 1 -18 -45 -23 -139 -51 -225 -67 l-32
-6 31 50 c52 83 49 190 -8 274 -14 20 -23 39 -21 42 17 17 84 62 92 63 6 0 16
-4 24 -9z m-464 -11 c3 -5 1 -10 -4 -10 -6 0 -11 5 -11 10 0 6 2 10 4 10 3 0
8 -4 11 -10z m45 -15 c-13 -14 -25 -23 -28 -21 -5 6 31 44 42 45 5 1 -1 -10
-14 -24z m65 15 c3 -5 2 -10 -4 -10 -5 0 -13 5 -16 10 -3 6 -2 10 4 10 5 0 13
-4 16 -10z m152 -40 c9 0 14 -3 10 -6 -3 -4 1 -14 10 -22 20 -21 0 -29 -31
-13 -15 8 -21 20 -20 39 4 42 6 49 11 25 2 -13 12 -23 20 -23z m-344 24 c3 -4
-1 -16 -9 -29 -13 -20 -13 -23 1 -29 9 -3 13 -10 10 -16 -9 -14 -25 -12 -22 3
1 6 -4 11 -10 10 -18 -4 -16 12 2 27 9 7 14 19 11 27 -5 13 6 18 17 7z m168
-7 c-1 -12 -15 -9 -19 4 -3 6 1 10 8 8 6 -3 11 -8 11 -12z m109 3 c0 -5 -4
-10 -10 -10 -5 0 -10 5 -10 10 0 6 5 10 10 10 6 0 10 -4 10 -10z m-215 -10 c3
-5 2 -10 -4 -10 -5 0 -13 5 -16 10 -3 6 -2 10 4 10 5 0 13 -4 16 -10z m155 0
c0 -5 7 -10 15 -10 8 0 15 -4 15 -10 0 -16 -15 -12 -35 10 -10 11 -13 20 -7
20 7 0 12 -4 12 -10z m-270 -15 c-7 -9 -15 -13 -17 -11 -7 7 7 26 19 26 6 0 6
-6 -2 -15z m200 -9 c0 -14 -47 -42 -56 -33 -11 11 6 26 23 20 11 -4 14 -3 9 5
-9 15 2 34 15 27 5 -4 9 -12 9 -19z m-120 -7 c0 -18 -2 -20 -15 -9 -13 11 -13
15 -3 21 18 12 18 12 18 -12z m60 17 c0 -2 -8 -10 -17 -17 -16 -13 -17 -12 -4
4 13 16 21 21 21 13z m120 -17 c7 -11 9 -23 7 -26 -3 -2 -8 5 -12 16 -10 33
-22 25 -21 -14 1 -24 5 -34 14 -30 6 2 12 -2 12 -10 0 -8 6 -15 13 -15 8 0 9
-2 1 -8 -6 -4 -14 -17 -18 -30 -4 -12 -12 -20 -17 -16 -12 7 -49 -5 -49 -16 0
-4 7 -11 16 -14 12 -4 15 -2 10 9 -3 8 -1 15 4 15 13 0 13 -27 -1 -35 -5 -4
-19 1 -30 10 -18 18 -18 18 1 35 12 10 16 20 10 26 -6 6 -4 20 5 37 7 15 11
27 7 27 -4 0 0 5 8 10 11 7 11 10 2 10 -10 0 -10 5 -2 20 14 26 26 25 40 -1z
m70 -7 c0 -13 -12 -22 -22 -16 -10 6 -1 24 13 24 5 0 9 -4 9 -8z m-318 -32
c12 -11 16 -20 10 -20 -9 0 -10 -12 -6 -39 8 -52 -11 -106 -46 -131 -40 -29
-44 -25 -16 18 40 61 43 97 11 175 -10 24 20 23 47 -3z m343 -10 c-5 -8 -11
-8 -17 -2 -6 6 -7 16 -3 22 5 8 11 8 17 2 6 -6 7 -16 3 -22z m-421 3 c18 -63
17 -94 -3 -137 -19 -37 -30 -47 -68 -60 -26 -9 -58 -16 -72 -16 l-25 0 22 20
c12 11 28 20 37 20 31 0 72 29 85 60 8 19 10 48 6 80 -4 30 -3 50 3 50 5 0 12
-8 15 -17z m203 -9 c-9 -9 -28 6 -21 18 4 6 10 6 17 -1 6 -6 8 -13 4 -17z m60
12 c0 -8 -6 -12 -15 -9 -11 5 -11 7 0 14 7 5 13 9 14 9 0 0 1 -6 1 -14z m-136
-17 c-23 -19 -23 -20 -5 -41 18 -20 18 -21 1 -15 -11 4 -16 3 -12 -3 10 -17
40 -11 55 10 18 25 36 26 50 3 8 -13 13 -14 16 -5 6 14 24 16 24 3 0 -19 -35
-22 -47 -5 -12 17 -15 16 -41 -9 -18 -17 -35 -25 -45 -22 -18 7 -30 32 -21 46
3 5 -1 9 -8 9 -7 1 1 12 17 25 17 14 32 25 35 25 3 -1 -6 -10 -19 -21z m239
17 c0 -3 -4 -8 -10 -11 -5 -3 -10 -1 -10 4 0 6 5 11 10 11 6 0 10 -2 10 -4z
m159 -5 c11 -7 10 -11 -7 -20 -42 -22 -49 -118 -10 -142 13 -8 -10 -43 -32
-47 -8 -1 -32 -22 -52 -45 -21 -23 -38 -38 -38 -34 0 14 83 97 97 97 11 0 9 7
-6 26 -31 39 -28 100 6 136 15 15 22 28 15 28 -6 0 -14 -4 -17 -10 -3 -5 -18
-10 -33 -10 -31 0 -19 16 18 23 41 7 44 7 59 -2z m-565 -33 c17 -64 -18 -108
-84 -108 -51 0 -45 14 14 29 48 12 58 26 49 71 -6 35 12 42 21 8z m286 12 c8
-5 12 -12 9 -15 -8 -8 -39 5 -39 16 0 11 11 11 30 -1z m139 -11 c-7 -4 -17 -5
-22 -2 -5 3 -3 9 4 14 7 4 17 5 22 2 5 -3 3 -9 -4 -14z m-227 -11 c-6 -6 -16
-7 -22 -3 -9 6 -9 9 1 16 17 10 34 0 21 -13z m251 -13 c-22 -17 -30 -11 -13
10 7 8 17 12 22 9 5 -3 1 -12 -9 -19z m149 -8 c4 -20 1 -23 -14 -19 -26 6 -24
-27 3 -36 20 -8 19 -8 -6 -22 -23 -12 -28 -12 -35 0 -18 28 -11 78 12 94 25
18 34 14 40 -17z m-637 14 c3 -5 1 -12 -5 -16 -5 -3 -10 1 -10 9 0 18 6 21 15
7z m406 -82 c-29 -28 -55 -48 -58 -45 -7 6 63 76 77 76 5 0 10 10 10 22 0 17
3 19 12 10 10 -10 1 -23 -41 -63z m119 62 c0 -13 -26 -32 -33 -24 -8 7 11 33
24 33 5 0 9 -4 9 -9z m-236 -30 c-7 -8 -35 9 -29 19 4 6 11 5 20 -3 7 -6 11
-14 9 -16z m-33 -14 c-1 -12 -15 -9 -19 4 -3 6 1 10 8 8 6 -3 11 -8 11 -12z
m229 3 c0 -5 -7 -10 -15 -10 -8 0 -15 5 -15 10 0 6 7 10 15 10 8 0 15 -4 15
-10z m-301 -23 c-29 -28 -35 -27 -17 2 7 12 19 21 27 21 9 0 6 -8 -10 -23z
m140 6 c11 -9 18 -20 15 -25 -9 -13 -24 -9 -24 7 0 8 -4 15 -10 15 -5 0 -10 5
-10 10 0 14 7 13 29 -7z m139 -12 c3 -8 -1 -12 -9 -9 -7 2 -15 10 -17 17 -3 8
1 12 9 9 7 -2 15 -10 17 -17z m-238 -12 c0 -6 -4 -7 -10 -4 -5 3 -10 11 -10
16 0 6 5 7 10 4 6 -3 10 -11 10 -16z m55 2 c-3 -6 -11 -8 -17 -5 -6 4 -5 9 3
15 16 10 23 4 14 -10z m235 9 c0 -5 -4 -10 -10 -10 -5 0 -10 5 -10 10 0 6 5
10 10 10 6 0 10 -4 10 -10z m-75 -23 c6 -5 -1 -5 -14 -2 -16 5 -21 4 -16 -4 9
-16 -13 -41 -31 -34 -12 4 -10 11 12 34 15 16 30 26 33 22 3 -4 11 -11 16 -16z
m-520 3 c3 -5 4 -10 1 -10 -2 0 -12 -3 -20 -6 -12 -5 -15 -2 -10 10 7 18 20
21 29 6z m269 -11 c-11 -5 -13 -8 -5 -8 8 -1 12 -4 8 -7 -3 -3 -11 -3 -17 1
-8 5 -8 11 1 21 6 7 16 11 22 7 6 -4 3 -9 -9 -14z m121 -9 c-5 -8 -11 -8 -17
-2 -6 6 -7 16 -3 22 5 8 11 8 17 2 6 -6 7 -16 3 -22z m159 -5 c-16 -13 -31
-22 -33 -19 -7 7 43 52 52 47 5 -3 -4 -16 -19 -28z m-214 15 c0 -5 -4 -10 -10
-10 -5 0 -10 5 -10 10 0 6 5 10 10 10 6 0 10 -4 10 -10z m285 0 c3 -5 2 -10
-4 -10 -5 0 -13 5 -16 10 -3 6 -2 10 4 10 5 0 13 -4 16 -10z m-31 -25 c-4 -8
-10 -12 -15 -9 -11 6 -2 24 11 24 5 0 7 -7 4 -15z m-334 -10 c15 -14 18 -14
30 0 7 8 18 15 24 15 6 0 2 -7 -8 -15 -16 -12 -17 -17 -6 -30 11 -13 9 -20
-10 -40 -30 -32 -45 -32 -25 -1 15 22 14 26 -9 52 -20 23 -27 27 -37 17 -7 -7
-20 -13 -28 -13 -11 0 -10 4 5 15 25 19 43 19 64 0z m110 5 c0 -5 -4 -10 -9
-10 -6 0 -13 5 -16 10 -3 6 1 10 9 10 9 0 16 -4 16 -10z m55 0 c-3 -5 -10 -10
-16 -10 -5 0 -9 5 -9 10 0 6 7 10 16 10 8 0 12 -4 9 -10z m289 1 c3 -4 3 -11
0 -14 -8 -8 -34 3 -34 14 0 11 27 12 34 0z m-144 -22 c0 -5 -7 -9 -15 -9 -9 0
-12 6 -9 15 6 15 24 11 24 -6z m-440 1 c0 -17 -52 -32 -75 -22 -18 9 -17 11
15 20 47 14 60 14 60 2z m213 4 c11 -11 -3 -24 -18 -18 -8 4 -12 10 -9 15 6
11 18 12 27 3z m54 -20 c-9 -9 -28 6 -21 18 4 6 10 6 17 -1 6 -6 8 -13 4 -17z
m51 11 c-2 -6 -9 -8 -17 -7 -9 2 -12 -2 -8 -12 7 -18 -9 -31 -18 -16 -8 13 24
52 38 47 4 -1 7 -7 5 -12z m62 -1 c0 -8 4 -13 9 -9 5 3 13 0 16 -6 11 -17 -3
-23 -20 -9 -13 11 -19 10 -35 -5 -18 -16 -20 -16 -20 -2 0 10 7 17 15 17 8 0
14 3 14 8 -3 14 1 22 11 22 6 0 10 -7 10 -16z m160 -4 c0 -5 -4 -10 -10 -10
-5 0 -10 5 -10 10 0 6 5 10 10 10 6 0 10 -4 10 -10z m-780 -15 c10 -13 9 -15
-8 -15 -15 0 -20 5 -16 15 4 8 7 15 9 15 1 0 8 -7 15 -15z m349 1 c6 -7 9 -21
5 -30 -8 -20 -44 -21 -44 -1 0 17 -26 21 -32 4 -2 -6 -14 -8 -31 -3 -33 8 -26
19 23 32 50 14 66 14 79 -2z m406 4 c4 -6 1 -17 -5 -25 -10 -12 -9 -15 6 -15
14 0 15 -3 6 -12 -10 -10 -17 -8 -34 9 -18 18 -19 24 -8 37 15 19 26 20 35 6z
m-275 -10 c0 -5 -5 -10 -11 -10 -5 0 -7 5 -4 10 3 6 8 10 11 10 2 0 4 -4 4
-10z m137 -36 c-9 -9 -28 6 -21 18 4 6 10 6 17 -1 6 -6 8 -13 4 -17z m-167 6
c0 -5 -4 -10 -10 -10 -5 0 -10 5 -10 10 0 6 5 10 10 10 6 0 10 -4 10 -10z m60
0 c0 -5 -7 -10 -15 -10 -8 0 -15 5 -15 10 0 6 7 10 15 10 8 0 15 -4 15 -10z
m50 0 c0 -5 -4 -10 -10 -10 -5 0 -10 5 -10 10 0 6 5 10 10 10 6 0 10 -4 10
-10z m160 -15 c7 -8 8 -15 2 -15 -5 0 -15 7 -22 15 -7 8 -8 15 -2 15 5 0 15
-7 22 -15z m-75 -4 c3 -5 1 -12 -5 -16 -5 -3 -10 1 -10 9 0 18 6 21 15 7z
m-165 -11 c0 -5 -2 -10 -4 -10 -3 0 -8 5 -11 10 -3 6 -1 10 4 10 6 0 11 -4 11
-10z m60 6 c0 -3 -4 -8 -10 -11 -5 -3 -10 -1 -10 4 0 6 5 11 10 11 6 0 10 -2
10 -4z m55 -6 c3 -5 2 -10 -4 -10 -5 0 -13 5 -16 10 -3 6 -2 10 4 10 5 0 13
-4 16 -10z m-771 -22 c-3 -4 -20 -8 -37 -8 -24 0 -28 3 -17 10 18 11 61 9 54
-2z m46 -2 c0 -2 -9 -6 -20 -9 -11 -3 -18 -1 -14 4 5 9 34 13 34 5z m364 -23
c-20 -32 -44 -57 -44 -48 0 8 51 75 57 75 3 0 -3 -12 -13 -27z m-304 9 c0 -9
-61 -40 -103 -53 -44 -13 -22 6 30 26 26 10 52 22 58 26 11 11 15 11 15 1z
m362 -14 c-7 -7 -12 -8 -12 -2 0 14 12 26 19 19 2 -3 -1 -11 -7 -17z m-482 -8
c-8 -5 -35 -10 -60 -10 -58 0 -36 14 27 18 34 1 44 -1 33 -8z m-74 -42 c-10
-5 -23 -5 -33 1 -15 8 -11 10 15 9 26 -1 30 -3 18 -10z m144 8 c0 -3 -4 -8
-10 -11 -5 -3 -10 -1 -10 4 0 6 5 11 10 11 6 0 10 -2 10 -4z m-40 -15 c0 -14
-21 -19 -101 -26 -49 -4 -69 -3 -60 3 8 6 24 9 37 7 13 -1 24 2 24 7 0 5 18 7
40 4 22 -2 40 0 40 5 0 5 5 9 10 9 6 0 10 -4 10 -9z m196 -16 c0 -14 -2 -25
-3 -25 -28 0 -44 34 -20 43 22 9 25 7 23 -18z m567 -15 c3 -11 1 -20 -4 -20
-5 0 -9 9 -9 20 0 11 2 20 4 20 2 0 6 -9 9 -20z m-653 -21 c0 -5 -4 -9 -10 -9
-5 0 -10 7 -10 16 0 8 5 12 10 9 6 -3 10 -10 10 -16z m567 -21 c-3 -7 -5 -2
-5 12 0 14 2 19 5 13 2 -7 2 -19 0 -25z m-809 1 c-17 -7 -38 -7 -60 0 -30 8
-28 9 27 9 50 0 56 -1 33 -9z m746 -14 c-16 -14 -33 -25 -39 -25 -13 1 43 50
57 50 6 0 -2 -11 -18 -25z m-739 -26 c11 -10 -65 -12 -90 -3 -12 5 -14 9 -4
14 14 10 80 1 94 -11z m109 -25 c3 -8 2 -12 -4 -9 -6 3 -10 10 -10 16 0 14 7
11 14 -7z m-31 -11 c-3 -7 -8 -13 -12 -13 -4 0 -8 6 -8 13 0 8 6 14 13 14 7 0
10 -6 7 -14z m667 7 c0 -5 -2 -10 -4 -10 -3 0 -8 5 -11 10 -3 6 -1 10 4 10 6
0 11 -4 11 -10z m-395 -10 c-3 -5 -12 -10 -18 -10 -7 0 -6 4 3 10 19 12 23 12
15 0z m-51 -70 c-20 -22 -41 -37 -47 -33 -6 3 -7 1 -4 -4 4 -6 0 -16 -8 -23
-11 -9 -14 -8 -12 11 1 12 9 24 19 27 10 2 15 8 12 13 -3 5 2 6 11 3 10 -4 15
-2 13 7 -2 8 2 13 9 12 6 -2 15 6 18 17 4 11 11 18 16 15 5 -4 -8 -24 -27 -45z
m-408 31 c-10 -15 -63 -19 -63 -4 0 8 13 13 34 13 19 0 32 -4 29 -9z m49 -1
c-3 -5 -12 -10 -18 -10 -7 0 -6 4 3 10 19 12 23 12 15 0z m975 -10 c-6 -11
-13 -20 -16 -20 -2 0 0 9 6 20 6 11 13 20 16 20 2 0 0 -9 -6 -20z m129 -112
c12 -12 21 -27 21 -32 0 -18 -47 38 -69 82 -12 23 -21 49 -21 59 0 10 11 -6
25 -34 13 -29 33 -63 44 -75z m-395 90 c-4 -13 -9 -25 -13 -28 -3 -3 -6 -16
-6 -30 0 -19 -5 -24 -20 -22 -16 2 -17 1 -5 -7 8 -5 12 -11 10 -13 -24 -15
-53 -29 -55 -26 -8 7 38 95 62 121 32 33 36 34 27 5z m-804 -7 c0 -5 -7 -11
-14 -14 -10 -4 -13 -1 -9 9 6 15 23 19 23 5z m-45 -11 c-3 -5 -14 -10 -23 -9
-14 0 -13 2 3 9 27 11 27 11 20 0z m95 0 c18 -12 2 -12 -25 0 -13 6 -15 9 -5
9 8 0 22 -4 30 -9z m300 -19 c0 -12 -21 -28 -53 -40 -37 -14 -34 -1 6 26 35
24 47 28 47 14z m303 -29 c-3 -12 -9 -22 -14 -22 -5 0 -3 11 3 25 13 30 20 28
11 -3z m54 -2 c-2 -11 -9 -26 -15 -32 -7 -7 -12 -17 -12 -24 0 -6 -6 -17 -14
-23 -8 -7 -3 13 12 44 28 59 34 66 29 35z m149 -68 c1 -55 1 -56 -12 -27 -15
34 -17 56 -8 80 11 27 18 7 20 -53z m141 41 c-12 -26 -16 -27 -39 -9 -27 20
-22 31 16 32 32 0 33 -1 23 -23z m178 -23 c16 -16 24 -30 18 -30 -7 0 -21 14
-33 30 -12 17 -20 30 -18 30 3 0 17 -13 33 -30z m-1205 -14 c0 -18 -5 -23 -22
-21 -41 4 -43 6 -25 16 9 5 22 7 27 4 6 -4 10 -3 9 2 -2 13 1 23 6 23 3 0 5
-11 5 -24z m1180 -7 c0 -6 -4 -7 -10 -4 -5 3 -10 11 -10 16 0 6 5 7 10 4 6 -3
10 -11 10 -16z m-885 1 c3 -6 -1 -7 -9 -4 -18 7 -21 14 -7 14 6 0 13 -4 16
-10z m182 -42 c-3 -8 -6 -5 -6 6 -1 11 2 17 5 13 3 -3 4 -12 1 -19z m-547 9
c0 -2 -12 -14 -27 -28 l-28 -24 24 28 c23 25 31 32 31 24z m1001 -20 c-10 -9
-11 -8 -5 6 3 10 9 15 12 12 3 -3 0 -11 -7 -18z m-237 -1 c-3 -8 -12 -17 -20
-20 -18 -7 -18 -1 2 18 19 20 25 20 18 2z m-334 0 c0 -2 -8 -10 -17 -17 -16
-13 -17 -12 -4 4 13 16 21 21 21 13z m26 -23 c-10 -10 -19 5 -10 18 6 11 8 11
12 0 2 -7 1 -15 -2 -18z m574 -4 c0 -6 -4 -7 -10 -4 -5 3 -10 11 -10 16 0 6 5
7 10 4 6 -3 10 -11 10 -16z m237 -15 c-3 -3 -12 -4 -19 -1 -8 3 -5 6 6 6 11 1
17 -2 13 -5z m-264 -24 c4 -15 0 -20 -16 -20 -18 0 -19 2 -7 10 13 9 13 11 0
20 -13 8 -13 10 1 10 9 0 19 -9 22 -20z m-778 -50 c-20 -23 -29 -21 -19 4 3 9
13 16 22 16 13 0 12 -3 -3 -20z m558 -20 c3 -11 1 -20 -4 -20 -5 0 -9 9 -9 20
0 11 2 20 4 20 2 0 6 -9 9 -20z m-751 -19 c-18 -15 -45 -34 -60 -42 -15 -8
-32 -21 -39 -29 -6 -8 -19 -24 -28 -35 -16 -20 -16 -20 -5 3 15 30 66 78 115
107 53 31 57 30 17 -4z m602 17 c-19 -32 -88 -108 -98 -108 -6 1 0 10 13 20
13 11 21 20 19 20 -5 0 65 80 70 80 2 0 0 -6 -4 -12z m33 -12 c-8 -21 -92
-128 -118 -151 -12 -11 6 16 40 60 35 43 65 85 68 92 3 7 7 13 10 13 3 0 3 -6
0 -14z m-467 -6 c0 -5 -5 -10 -11 -10 -5 0 -7 5 -4 10 3 6 8 10 11 10 2 0 4
-4 4 -10z m680 -10 c0 -5 -4 -10 -10 -10 -5 0 -10 5 -10 10 0 6 5 10 10 10 6
0 10 -4 10 -10z m-697 -23 c3 -8 -1 -14 -8 -14 -7 0 -11 6 -8 14 3 7 6 13 8
13 2 0 5 -6 8 -13z m607 3 c0 -5 -2 -10 -4 -10 -3 0 -8 5 -11 10 -3 6 -1 10 4
10 6 0 11 -4 11 -10z m920 6 c0 -2 3 -11 6 -20 3 -9 1 -16 -6 -16 -6 0 -8 5
-5 10 4 6 -5 10 -20 10 -15 0 -24 4 -20 10 6 10 45 15 45 6z m90 -6 c0 -5 -7
-10 -15 -10 -8 0 -15 -4 -15 -10 0 -5 7 -7 15 -4 8 4 15 1 15 -4 0 -6 -10 -13
-22 -15 -20 -4 -19 -4 5 -6 15 0 27 -6 27 -12 0 -6 -12 -9 -27 -7 -47 5 -43
77 5 78 6 0 12 -4 12 -10z m835 0 c3 -5 2 -10 -4 -10 -5 0 -13 5 -16 10 -3 6
-2 10 4 10 5 0 13 -4 16 -10z m93 -37 c-6 -7 -3 -15 9 -23 17 -11 17 -11 0 -6
-10 3 -23 6 -28 6 -14 0 -11 58 4 63 16 5 27 -24 15 -40z m82 22 c0 -14 -4
-25 -9 -25 -6 0 -8 36 -2 48 5 10 11 -2 11 -23z m-2128 -7 c-7 -7 -12 -8 -12
-2 0 6 3 14 7 17 3 4 9 5 12 2 2 -3 -1 -11 -7 -17z m1222 0 c21 -29 20 -44 0
-27 -12 10 -20 10 -35 1 -18 -12 -27 -3 -11 12 4 4 8 12 8 17 3 17 4 19 13 19
6 0 17 -10 25 -22z m56 15 c0 -5 -5 -15 -10 -23 -8 -12 -10 -11 -10 8 0 12 5
22 10 22 6 0 10 -3 10 -7z m267 -12 c-8 -9 -16 -22 -18 -29 -3 -7 -9 0 -15 15
-10 26 -9 28 18 29 25 1 27 -1 15 -15z m131 2 c-2 -10 -6 -16 -10 -13 -4 3
-13 -3 -20 -13 -12 -16 -13 -14 -13 13 0 25 4 30 23 30 17 0 23 -5 20 -17z
m64 -14 c-4 -26 -6 -29 -14 -15 -10 18 -4 46 10 46 5 0 6 -14 4 -31z m52 -7
c-6 -9 -20 -18 -30 -19 -14 -2 -12 0 5 7 17 8 22 16 18 32 -5 16 -3 18 6 9 8
-8 9 -16 1 -29z m72 8 c1 -17 -3 -30 -7 -30 -5 0 -9 14 -9 30 0 39 15 39 16 0z
m302 0 c-1 -35 -9 -32 -13 5 -2 14 1 25 5 25 5 0 8 -14 8 -30z m84 -8 c-3 -17
-7 -21 -10 -12 -3 8 -9 22 -13 32 -7 12 -5 15 10 11 13 -3 17 -11 13 -31z
m-1882 -37 c4 -51 1 -62 -9 -45 -6 8 -7 18 -4 22 2 5 -1 15 -7 23 -9 11 -9 15
-1 15 8 0 9 5 1 19 -15 29 -12 39 4 15 8 -11 15 -33 16 -49z m630 35 c0 -11
-4 -20 -9 -20 -5 0 -7 9 -4 20 3 11 7 20 9 20 2 0 4 -9 4 -20z m441 -7 c-12
-20 -14 -14 -5 12 4 9 9 14 11 11 3 -2 0 -13 -6 -23z m519 7 c0 -11 -4 -20
-10 -20 -5 0 -10 9 -10 20 0 11 5 20 10 20 6 0 10 -9 10 -20z m-560 5 c0 -2
-9 -9 -20 -15 -16 -9 -20 -8 -20 5 0 8 9 15 20 15 11 0 20 -2 20 -5z m-823
-37 c-3 -8 -6 -5 -6 6 -1 11 2 17 5 13 3 -3 4 -12 1 -19z m-1170 -23 c0 -8 -4
-12 -9 -9 -5 3 -6 10 -3 15 9 13 12 11 12 -6z m66 -2 c-7 -2 -13 -12 -13 -20
0 -9 -3 -14 -6 -10 -10 10 4 37 18 36 10 0 10 -2 1 -6z m927 -28 c-7 -9 -15
-13 -19 -10 -3 3 1 10 9 15 21 14 24 12 10 -5z m-1027 -6 c-6 -6 -9 -17 -7
-24 6 -14 -41 -55 -62 -55 -7 0 -15 -8 -18 -18 -3 -9 -16 -23 -28 -31 -22 -13
-22 -13 -8 5 38 47 45 54 59 54 8 0 11 3 7 7 -6 6 51 73 63 73 3 0 0 -5 -6
-11z m572 -59 c-10 -33 -22 -60 -28 -60 -5 0 -6 8 -1 18 4 9 14 38 23 64 22
69 28 49 6 -22z m242 29 c-8 -19 -22 -43 -31 -54 l-16 -20 6 20 c4 11 13 27
19 35 7 8 16 25 20 38 4 13 9 21 11 19 3 -3 -1 -20 -9 -38z m-322 -13 c-37
-49 -43 -46 -8 3 15 22 30 38 32 36 1 -2 -9 -20 -24 -39z m549 19 c-10 -8 -14
-15 -8 -15 7 0 14 -10 17 -22 5 -19 3 -18 -17 7 -24 30 -20 44 13 45 11 0 9
-4 -5 -15z m-580 -9 c-3 -8 -13 -17 -22 -21 -13 -5 -13 -2 3 15 21 24 26 25
19 6z m-410 -22 c3 -8 2 -12 -4 -9 -6 3 -10 10 -10 16 0 14 7 11 14 -7z m1321
-5 c11 -17 -1 -21 -15 -4 -8 9 -8 15 -2 15 6 0 14 -5 17 -11z m-1355 -29 c-6
-11 -13 -20 -16 -20 -2 0 0 9 6 20 6 11 13 20 16 20 2 0 0 -9 -6 -20z m560
-17 c-11 -17 -11 -17 -6 0 3 10 6 24 7 30 0 9 2 9 5 0 3 -7 0 -20 -6 -30z
m-137 -13 c-3 -11 -9 -20 -15 -20 -5 0 -4 9 2 20 6 11 12 20 14 20 2 0 2 -9
-1 -20z m-343 -4 c0 -2 -8 -10 -17 -17 -16 -13 -17 -12 -4 4 13 16 21 21 21
13z m465 -17 c11 -16 1 -19 -13 -3 -7 8 -8 14 -3 14 5 0 13 -5 16 -11z m-9
-49 c1 -17 -2 -30 -7 -30 -4 0 -6 -6 -3 -14 3 -8 1 -17 -5 -21 -7 -4 -11 4
-11 19 0 14 5 28 11 32 6 3 8 17 4 33 -4 14 -3 22 1 18 4 -4 9 -21 10 -37z
m-486 27 c0 -2 -15 -16 -32 -33 l-33 -29 29 33 c28 30 36 37 36 29z m-136 -42
c-15 -14 -31 -25 -36 -25 -11 0 44 49 55 50 4 0 -4 -11 -19 -25z m260 -25
c-17 -33 -30 -44 -38 -32 -7 11 34 73 44 67 5 -3 2 -19 -6 -35z m-90 -37 c-21
-27 -40 -50 -41 -52 -2 -2 -3 0 -3 6 0 10 68 93 76 93 3 0 -12 -21 -32 -47z
m136 40 c-1 -5 -12 -21 -26 -38 -26 -30 -23 -21 6 23 16 23 20 27 20 15z
m1150 -13 c0 -5 -4 -12 -10 -15 -5 -3 -10 -4 -10 -1 0 2 -3 12 -6 20 -5 12 -2
15 10 10 9 -3 16 -10 16 -14z m-1397 -5 c-3 -9 -8 -14 -10 -11 -3 3 -2 9 2 15
9 16 15 13 8 -4z m1059 -7 c-7 -7 -12 -8 -12 -2 0 6 3 14 7 17 3 4 9 5 12 2 2
-3 -1 -11 -7 -17z m358 -28 c13 -24 5 -41 -14 -34 -8 3 -11 15 -8 30 5 29 8
30 22 4z m-1278 -35 c-15 -16 -28 -31 -28 -33 -1 -2 -4 4 -7 12 -4 9 -1 15 6
13 7 -1 13 5 13 13 3 25 3 26 24 26 18 0 17 -3 -8 -31z m-87 -24 c-3 -6 -11
-11 -17 -11 -6 0 -6 6 2 15 14 17 26 13 15 -4z m715 0 c0 -14 -5 -18 -19 -14
-12 3 -17 11 -14 19 8 21 33 17 33 -5z m-673 -23 c-3 -8 -6 -5 -6 6 -1 11 2
17 5 13 3 -3 4 -12 1 -19z m-80 -45 c-12 -21 -22 -44 -24 -52 -1 -8 -8 -18
-15 -22 -10 -7 -11 -12 0 -29 10 -16 10 -20 -2 -20 -8 0 -17 -6 -20 -12 -3 -7
-3 1 0 17 13 67 25 105 34 105 6 0 9 3 8 8 -4 13 23 53 32 47 5 -3 -1 -22 -13
-42z m51 10 c-9 -2 -15 -10 -12 -17 3 -8 -6 -26 -21 -42 -14 -15 -24 -32 -22
-38 5 -14 27 -20 27 -6 0 7 9 23 20 37 11 14 20 23 20 20 0 -13 -43 -77 -52
-77 -5 0 -7 -4 -4 -8 3 -5 -3 -42 -14 -83 -13 -53 -15 -76 -7 -81 6 -4 8 -10
5 -14 -10 -9 -48 57 -48 81 1 16 4 14 16 -10 l14 -30 -5 28 c-3 15 -1 27 5 27
5 0 10 4 10 8 0 5 -10 8 -21 8 -31 -1 -34 18 -6 31 24 11 44 53 26 53 -6 0 -5
9 1 21 6 11 13 30 15 41 3 11 7 23 11 27 4 3 4 -2 1 -12 -4 -11 -3 -16 3 -12
6 3 10 14 10 24 0 22 9 31 29 30 13 -1 13 -2 -1 -6z m902 -25 c0 -5 -4 -8 -10
-8 -5 0 -10 10 -10 23 0 18 2 19 10 7 5 -8 10 -18 10 -22z m-553 -10 c-3 -7
-5 -2 -5 12 0 14 2 19 5 13 2 -7 2 -19 0 -25z m854 15 c13 -16 12 -17 -3 -4
-17 13 -22 21 -14 21 2 0 10 -8 17 -17z m-221 -44 c0 -6 12 -27 27 -47 16 -20
20 -31 10 -23 -20 15 -23 2 -4 -19 10 -12 9 -12 -6 0 -10 7 -16 19 -13 26 2 6
-4 20 -13 31 -10 11 -24 29 -30 42 -12 21 -11 22 8 11 12 -6 21 -15 21 -21z
m-73 -11 c-3 -7 -5 -2 -5 12 0 14 2 19 5 13 2 -7 2 -19 0 -25z m510 25 c-4 -3
-1 -13 6 -21 10 -13 -20 2 -52 25 -2 2 8 3 24 3 16 0 25 -3 22 -7z m-1220 -25
c-3 -8 -6 -5 -6 6 -1 11 2 17 5 13 3 -3 4 -12 1 -19z m153 7 c0 -8 -2 -15 -4
-15 -2 0 -6 7 -10 15 -3 8 -1 15 4 15 6 0 10 -7 10 -15z m925 5 c3 -6 -1 -7
-9 -4 -18 7 -21 14 -7 14 6 0 13 -4 16 -10z m62 4 c-3 -3 -12 -4 -19 -1 -8 3
-5 6 6 6 11 1 17 -2 13 -5z m47 -13 c4 -5 -3 -7 -14 -4 -23 6 -26 13 -6 13 8
0 17 -4 20 -9z m71 -11 c3 -5 1 -10 -4 -10 -6 0 -11 5 -11 10 0 6 2 10 4 10 3
0 8 -4 11 -10z m105 0 c0 -5 -4 -10 -10 -10 -5 0 -10 5 -10 10 0 6 5 10 10 10
6 0 10 -4 10 -10z m-120 -26 c0 -2 -9 0 -20 6 -11 6 -20 13 -20 16 0 2 9 0 20
-6 11 -6 20 -13 20 -16z m176 10 c18 -14 18 -15 -4 -4 -12 6 -28 8 -34 4 -7
-4 -8 -3 -4 4 10 16 18 15 42 -4z m-102 -6 c-5 -8 -2 -9 10 -5 10 4 15 3 11
-3 -7 -12 -35 -13 -35 -2 0 9 10 22 17 22 2 0 1 -5 -3 -12z m-39 -16 c-3 -3
-11 0 -18 7 -9 10 -8 11 6 5 10 -3 15 -9 12 -12z m91 -25 c4 -3 -6 -5 -20 -3
-14 1 -29 5 -32 9 -3 3 6 4 20 3 15 -2 29 -6 32 -9z m-535 -30 c-10 -9 -11 -8
-5 6 3 10 9 15 12 12 3 -3 0 -11 -7 -18z m-980 -49 c-6 -18 -8 -13 -8 22 0 35
2 40 8 22 5 -12 5 -32 0 -44z m1606 46 c-3 -3 -12 -4 -19 -1 -8 3 -5 6 6 6 11
1 17 -2 13 -5z m-600 -36 c-3 -8 -6 -5 -6 6 -1 11 2 17 5 13 3 -3 4 -12 1 -19z
m-674 -28 c-3 -11 -7 -20 -9 -20 -2 0 -4 9 -4 20 0 11 4 20 9 20 5 0 7 -9 4
-20z m-346 -42 c-3 -8 -6 -5 -6 6 -1 11 2 17 5 13 3 -3 4 -12 1 -19z m27 7 c3
-8 1 -15 -4 -15 -6 0 -10 7 -10 15 0 8 2 15 4 15 2 0 6 -7 10 -15z m33 -17
c-3 -7 -5 -2 -5 12 0 14 2 19 5 13 2 -7 2 -19 0 -25z m273 6 c0 -8 -5 -12 -10
-9 -6 4 -8 11 -5 16 9 14 15 11 15 -7z m570 -63 c-7 -11 -9 -3 -9 29 1 42 1
43 9 16 6 -17 5 -36 0 -45z m-880 14 c0 -14 5 -25 10 -25 16 0 12 -19 -9 -41
-19 -21 -19 -21 -26 13 -3 18 -9 42 -11 53 -4 16 -3 17 5 5 6 -8 11 -25 11
-38 0 -13 4 -21 10 -17 6 4 6 15 0 31 -13 32 -13 44 0 44 6 0 10 -11 10 -25z
m47 3 c-3 -8 -6 -5 -6 6 -1 11 2 17 5 13 3 -3 4 -12 1 -19z m698 12 c3 -5 1
-10 -4 -10 -6 0 -11 5 -11 10 0 6 2 10 4 10 3 0 8 -4 11 -10z m35 -20 c0 -5
-4 -10 -10 -10 -5 0 -10 5 -10 10 0 6 5 10 10 10 6 0 10 -4 10 -10z m432 -35
c4 -5 8 -14 8 -18 0 -9 -16 7 -40 38 -14 19 -14 19 5 5 11 -8 23 -19 27 -25z
m-1161 2 c-10 -9 -11 -8 -5 6 3 10 9 15 12 12 3 -3 0 -11 -7 -18z m959 9 c0
-3 -4 -8 -10 -11 -5 -3 -10 -1 -10 4 0 6 5 11 10 11 6 0 10 -2 10 -4z m-960
-73 c-11 -17 -11 -17 -6 0 3 10 7 26 7 35 1 15 2 15 6 0 2 -10 -1 -25 -7 -35z
m777 41 c-3 -3 -12 -4 -19 -1 -8 3 -5 6 6 6 11 1 17 -2 13 -5z m193 -29 c0 -5
-5 -3 -10 5 -5 8 -10 20 -10 25 0 6 5 3 10 -5 5 -8 10 -19 10 -25z m-1005 -17
c-2 -17 2 -40 11 -52 7 -11 14 -27 14 -35 0 -23 -15 -2 -34 47 -13 34 -14 45
-4 57 18 19 18 19 13 -17z m60 -17 c-4 -8 5 -46 20 -83 4 -11 3 -18 -4 -18 -6
0 -11 9 -11 21 0 11 -4 17 -10 14 -6 -3 -7 1 -4 10 4 8 0 23 -7 32 -11 13 -11
17 -1 20 6 3 9 10 6 15 -4 7 -2 8 5 4 6 -4 9 -11 6 -15z m950 9 c-3 -4 2 -22
11 -39 9 -18 14 -34 11 -37 -2 -3 -10 10 -16 28 -9 25 -14 29 -20 19 -7 -10
-9 -7 -8 11 1 13 7 25 14 25 7 0 10 -4 8 -7z m109 -149 c8 -12 8 -13 -2 -7
-16 9 -72 106 -72 125 0 8 14 -13 31 -45 17 -32 36 -65 43 -73z m-844 22 c0
-3 -9 5 -19 18 -11 13 -17 28 -14 32 4 7 33 -36 33 -50z m750 17 c0 -13 -1
-13 -10 0 -5 8 -10 22 -10 30 0 13 1 13 10 0 5 -8 10 -22 10 -30z m49 -55 c1
-5 -4 -3 -10 5 -9 12 -10 11 -6 -8 3 -12 1 -20 -3 -17 -4 3 -8 21 -7 40 1 34
1 35 14 13 7 -13 12 -27 12 -33z m764 38 c-7 -2 -19 -2 -25 0 -7 3 -2 5 12 5
14 0 19 -2 13 -5z m-472 -50 c13 -16 12 -17 -3 -4 -10 7 -18 15 -18 17 0 8 8
3 21 -13z m69 -7 c24 -13 50 -22 58 -18 9 3 13 1 9 -5 -4 -6 6 -10 25 -11 17
0 34 -4 37 -9 3 -4 22 -10 41 -11 53 -6 68 -18 34 -26 -17 -5 -30 -3 -32 3 -2
5 -9 8 -17 5 -7 -3 -24 2 -37 10 -14 9 -27 13 -31 10 -5 -6 -113 48 -131 67
-17 16 0 10 44 -15z m-337 -34 c-6 -26 -16 -28 -33 -7 -8 9 -8 15 -2 15 6 0
14 10 18 22 5 17 8 19 15 6 4 -8 5 -24 2 -36z m76 -15 c-2 -3 -15 10 -28 27
l-24 31 28 -27 c16 -15 27 -29 24 -31z m251 17 c0 -2 -9 0 -20 6 -11 6 -20 13
-20 16 0 2 9 0 20 -6 11 -6 20 -13 20 -16z m-165 6 c3 -6 -1 -7 -9 -4 -18 7
-21 14 -7 14 6 0 13 -4 16 -10z m-130 -19 c3 -5 2 -12 -3 -15 -5 -3 -9 1 -9 9
0 17 3 19 12 6z m372 -28 c-6 -5 -67 21 -67 29 0 4 16 0 35 -9 19 -9 33 -18
32 -20z m-297 -50 c0 -8 -36 16 -55 38 -16 19 -13 18 18 -5 20 -16 37 -30 37
-33z m527 51 c-3 -3 -12 -4 -19 -1 -8 3 -5 6 6 6 11 1 17 -2 13 -5z m-147 -26
c10 -6 3 -7 -20 -2 -19 3 -39 10 -45 16 -12 11 42 0 65 -14z m-360 -75 c3 -3
-18 7 -47 21 -28 15 -54 33 -56 40 -4 11 85 -42 103 -61z m420 67 c-20 -13
-40 -13 -40 0 0 6 12 10 28 10 21 0 24 -2 12 -10z m-839 -27 c13 -16 12 -17
-3 -4 -17 13 -22 21 -14 21 2 0 10 -8 17 -17z m445 -11 c-10 -2 -22 0 -28 6
-6 6 0 7 19 4 21 -5 23 -7 9 -10z"/>
<path d="M1104 1809 c-19 -22 -19 -22 4 -8 12 8 22 17 22 21 0 12 -6 9 -26
-13z"/>
</g>
</svg>
